HIERARCHY
ROOT Hips
{
	OFFSET 0.000000 0.000000 0.000000
	CHANNELS 6 Xposition Yposition Zposition Zrotation Yrotation Xrotation 
	JOINT Spine1
	{
		OFFSET -0.013727 5.003762 -0.053727
		CHANNELS 3 Zrotation Yrotation Xrotation
		JOINT Spine2
		{
			OFFSET -0.000000 7.125302 -0.029825
			CHANNELS 3 Zrotation Yrotation Xrotation
			JOINT Chest
			{
				OFFSET -0.000001 7.550065 -0.815971
				CHANNELS 3 Zrotation Yrotation Xrotation
				JOINT Neck1
				{
					OFFSET -0.181677 26.311296 -0.553348
					CHANNELS 3 Zrotation Yrotation Xrotation
					JOINT Neck2
					{
						OFFSET -0.000003 7.709399 2.302586
						CHANNELS 3 Zrotation Yrotation Xrotation
						JOINT Head
						{
							OFFSET -0.000005 6.128915 1.953708
							CHANNELS 3 Zrotation Yrotation Xrotation
							JOINT HeadEnd
							{
								OFFSET 0.003598 16.065401 -1.835379
								CHANNELS 3 Zrotation Yrotation Xrotation
								End Site
								{
									OFFSET 0.000000 0.000000 0.000000
								}
							}
							JOINT Jaw
							{
								OFFSET 0.002637 0.475590 3.094941
								CHANNELS 3 Zrotation Yrotation Xrotation
								End Site
								{
									OFFSET 0.000000 0.000000 0.000000
								}
							}
							JOINT LeftEye
							{
								OFFSET 3.206381 5.380207 7.586883
								CHANNELS 3 Zrotation Yrotation Xrotation
								End Site
								{
									OFFSET 0.000000 0.000000 0.000000
								}
							}
							JOINT RightEye
							{
								OFFSET -3.222440 5.361867 7.558233
								CHANNELS 3 Zrotation Yrotation Xrotation
								End Site
								{
									OFFSET 0.000000 0.000000 0.000000
								}
							}
						}
					}
				}
				JOINT LeftShoulder
				{
					OFFSET 1.621652 23.237165 5.113413
					CHANNELS 3 Zrotation Yrotation Xrotation
					JOINT LeftArm
					{
						OFFSET 14.919845 0.000000 -5.502326
						CHANNELS 3 Zrotation Yrotation Xrotation
						JOINT LeftForeArm
						{
							OFFSET 28.739309 0.000003 -0.002588
							CHANNELS 3 Zrotation Yrotation Xrotation
							JOINT LeftHand
							{
								OFFSET 27.093983 -0.000004 0.002609
								CHANNELS 3 Zrotation Yrotation Xrotation
								JOINT LeftHandThumb1
								{
									OFFSET 2.276481 -1.392045 3.191413
									CHANNELS 3 Zrotation Yrotation Xrotation
									JOINT LeftHandThumb2
									{
										OFFSET 4.012841 -1.828126 1.641656
										CHANNELS 3 Zrotation Yrotation Xrotation
										JOINT LeftHandThumb3
										{
											OFFSET 2.798516 0.000001 -0.000003
											CHANNELS 3 Zrotation Yrotation Xrotation
											JOINT LeftHandThumbEnd
											{
												OFFSET 3.180791 -0.000003 0.000003
												CHANNELS 3 Zrotation Yrotation Xrotation
												End Site
												{
													OFFSET 0.000000 0.000000 0.000000
												}
											}
										}
									}
								}
								JOINT LeftHandIndex1
								{
									OFFSET 3.247554 -0.531998 2.296169
									CHANNELS 3 Zrotation Yrotation Xrotation
									JOINT LeftHandIndex2
									{
										OFFSET 6.364579 0.012062 0.178600
										CHANNELS 3 Zrotation Yrotation Xrotation
										JOINT LeftHandIndex3
										{
											OFFSET 3.662366 -0.000000 -0.000000
											CHANNELS 3 Zrotation Yrotation Xrotation
											JOINT LeftHandIndex4
											{
												OFFSET 2.329243 0.000003 0.000005
												CHANNELS 3 Zrotation Yrotation Xrotation
												JOINT LeftHandIndexEnd
												{
													OFFSET 2.759619 -0.180538 -0.113024
													CHANNELS 3 Zrotation Yrotation Xrotation
													End Site
													{
														OFFSET 0.000000 0.000000 0.000000
													}
												}
											}
										}
									}
								}
								JOINT LeftHandMiddle1
								{
									OFFSET 3.163499 0.240981 1.000332
									CHANNELS 3 Zrotation Yrotation Xrotation
									JOINT LeftHandMiddle2
									{
										OFFSET 6.190777 -0.259277 -1.002548
										CHANNELS 3 Zrotation Yrotation Xrotation
										JOINT LeftHandMiddle3
										{
											OFFSET 4.356524 -0.000005 0.000001
											CHANNELS 3 Zrotation Yrotation Xrotation
											JOINT LeftHandMiddle4
											{
												OFFSET 2.996875 -0.000008 0.000001
												CHANNELS 3 Zrotation Yrotation Xrotation
												JOINT LeftHandMiddleEnd
												{
													OFFSET 2.304294 -0.294571 -0.031739
													CHANNELS 3 Zrotation Yrotation Xrotation
													End Site
													{
														OFFSET 0.000000 0.000000 0.000000
													}
												}
											}
										}
									}
								}
								JOINT LeftHandRing1
								{
									OFFSET 2.882642 -0.053650 -0.322543
									CHANNELS 3 Zrotation Yrotation Xrotation
									JOINT LeftHandRing2
									{
										OFFSET 5.854543 -0.486203 -1.373842
										CHANNELS 3 Zrotation Yrotation Xrotation
										JOINT LeftHandRing3
										{
											OFFSET 4.350580 -0.000000 0.000003
											CHANNELS 3 Zrotation Yrotation Xrotation
											JOINT LeftHandRing4
											{
												OFFSET 2.651324 0.000007 0.000004
												CHANNELS 3 Zrotation Yrotation Xrotation
												JOINT LeftHandRingEnd
												{
													OFFSET 1.936111 0.077684 -0.000069
													CHANNELS 3 Zrotation Yrotation Xrotation
													End Site
													{
														OFFSET 0.000000 0.000000 0.000000
													}
												}
											}
										}
									}
								}
								JOINT LeftHandPinky1
								{
									OFFSET 2.865498 -0.310004 -1.600378
									CHANNELS 3 Zrotation Yrotation Xrotation
									JOINT LeftHandPinky2
									{
										OFFSET 5.087855 -1.331141 -1.771231
										CHANNELS 3 Zrotation Yrotation Xrotation
										JOINT LeftHandPinky3
										{
											OFFSET 3.070975 0.000003 0.000001
											CHANNELS 3 Zrotation Yrotation Xrotation
											JOINT LeftHandPinky4
											{
												OFFSET 1.549667 -0.000000 0.000001
												CHANNELS 3 Zrotation Yrotation Xrotation
												JOINT LeftHandPinkyEnd
												{
													OFFSET 1.944895 -0.157802 0.057219
													CHANNELS 3 Zrotation Yrotation Xrotation
													End Site
													{
														OFFSET 0.000000 0.000000 0.000000
													}
												}
											}
										}
									}
								}
							}
						}
					}
				}
				JOINT RightShoulder
				{
					OFFSET -1.380118 23.180309 5.214158
					CHANNELS 3 Zrotation Yrotation Xrotation
					JOINT RightArm
					{
						OFFSET -15.037198 0.000012 -5.545604
						CHANNELS 3 Zrotation Yrotation Xrotation
						JOINT RightForeArm
						{
							OFFSET -28.736639 0.000004 -0.002597
							CHANNELS 3 Zrotation Yrotation Xrotation
							JOINT RightHand
							{
								OFFSET -27.133617 0.000000 0.002613
								CHANNELS 3 Zrotation Yrotation Xrotation
								JOINT RightHandThumb1
								{
									OFFSET -2.274036 -1.383991 3.163128
									CHANNELS 3 Zrotation Yrotation Xrotation
									JOINT RightHandThumb2
									{
										OFFSET -4.011429 -1.827468 1.640914
										CHANNELS 3 Zrotation Yrotation Xrotation
										JOINT RightHandThumb3
										{
											OFFSET -2.794935 -0.000003 -0.000004
											CHANNELS 3 Zrotation Yrotation Xrotation
											JOINT RightHandThumbEnd
											{
												OFFSET -3.183855 0.000003 -0.000000
												CHANNELS 3 Zrotation Yrotation Xrotation
												End Site
												{
													OFFSET 0.000000 0.000000 0.000000
												}
											}
										}
									}
								}
								JOINT RightHandIndex1
								{
									OFFSET -3.253268 -0.520060 2.282866
									CHANNELS 3 Zrotation Yrotation Xrotation
									JOINT RightHandIndex2
									{
										OFFSET -6.341918 0.012473 0.178265
										CHANNELS 3 Zrotation Yrotation Xrotation
										JOINT RightHandIndex3
										{
											OFFSET -3.654874 -0.000009 -0.000001
											CHANNELS 3 Zrotation Yrotation Xrotation
											JOINT RightHandIndex4
											{
												OFFSET -2.327586 0.000000 -0.000000
												CHANNELS 3 Zrotation Yrotation Xrotation
												JOINT RightHandIndexEnd
												{
													OFFSET -2.761789 -0.180657 -0.113079
													CHANNELS 3 Zrotation Yrotation Xrotation
													End Site
													{
														OFFSET 0.000000 0.000000 0.000000
													}
												}
											}
										}
									}
								}
								JOINT RightHandMiddle1
								{
									OFFSET -3.168106 0.246593 1.001031
									CHANNELS 3 Zrotation Yrotation Xrotation
									JOINT RightHandMiddle2
									{
										OFFSET -6.180830 -0.258835 -1.000896
										CHANNELS 3 Zrotation Yrotation Xrotation
										JOINT RightHandMiddle3
										{
											OFFSET -4.348906 -0.000000 -0.000001
											CHANNELS 3 Zrotation Yrotation Xrotation
											JOINT RightHandMiddle4
											{
												OFFSET -3.000242 -0.000004 -0.000002
												CHANNELS 3 Zrotation Yrotation Xrotation
												JOINT RightHandMiddleEnd
												{
													OFFSET -2.302518 -0.294370 -0.031706
													CHANNELS 3 Zrotation Yrotation Xrotation
													End Site
													{
														OFFSET 0.000000 0.000000 0.000000
													}
												}
											}
										}
									}
								}
								JOINT RightHandRing1
								{
									OFFSET -2.885694 -0.067952 -0.308858
									CHANNELS 3 Zrotation Yrotation Xrotation
									JOINT RightHandRing2
									{
										OFFSET -5.854197 -0.486132 -1.373732
										CHANNELS 3 Zrotation Yrotation Xrotation
										JOINT RightHandRing3
										{
											OFFSET -4.338815 -0.000002 -0.000000
											CHANNELS 3 Zrotation Yrotation Xrotation
											JOINT RightHandRing4
											{
												OFFSET -2.654906 -0.000004 0.000004
												CHANNELS 3 Zrotation Yrotation Xrotation
												JOINT RightHandRingEnd
												{
													OFFSET -1.933570 0.077524 -0.000052
													CHANNELS 3 Zrotation Yrotation Xrotation
													End Site
													{
														OFFSET 0.000000 0.000000 0.000000
													}
												}
											}
										}
									}
								}
								JOINT RightHandPinky1
								{
									OFFSET -2.866430 -0.342798 -1.584145
									CHANNELS 3 Zrotation Yrotation Xrotation
									JOINT RightHandPinky2
									{
										OFFSET -5.091370 -1.332054 -1.772385
										CHANNELS 3 Zrotation Yrotation Xrotation
										JOINT RightHandPinky3
										{
											OFFSET -3.062666 -0.000008 -0.000000
											CHANNELS 3 Zrotation Yrotation Xrotation
											JOINT RightHandPinky4
											{
												OFFSET -1.546527 0.000005 -0.000003
												CHANNELS 3 Zrotation Yrotation Xrotation
												JOINT RightHandPinkyEnd
												{
													OFFSET -1.945122 -0.157721 0.057211
													CHANNELS 3 Zrotation Yrotation Xrotation
													End Site
													{
														OFFSET 0.000000 0.000000 0.000000
													}
												}
											}
										}
									}
								}
							}
						}
					}
				}
			}
		}
	}
	JOINT LeftLeg
	{
		OFFSET 10.043214 -8.434526 2.595655
		CHANNELS 3 Zrotation Yrotation Xrotation
		JOINT LeftShin
		{
			OFFSET -0.000001 -43.221752 -0.802913
			CHANNELS 3 Zrotation Yrotation Xrotation
			JOINT LeftFoot
			{
				OFFSET 0.000001 -42.155094 -3.481522
				CHANNELS 3 Zrotation Yrotation Xrotation
				JOINT LeftToeBase
				{
					OFFSET 0.000000 -5.059475 13.231529
					CHANNELS 3 Zrotation Yrotation Xrotation
					JOINT LeftToeEnd
					{
						OFFSET -0.009607 -1.647615 6.513018
						CHANNELS 3 Zrotation Yrotation Xrotation
						End Site
						{
							OFFSET 0.000000 0.000000 0.000000
						}
					}
				}
			}
		}
	}
	JOINT RightLeg
	{
		OFFSET -10.047277 -8.295259 2.620317
		CHANNELS 3 Zrotation Yrotation Xrotation
		JOINT RightShin
		{
			OFFSET 0.000000 -43.362209 -0.805555
			CHANNELS 3 Zrotation Yrotation Xrotation
			JOINT RightFoot
			{
				OFFSET 0.000002 -42.117393 -3.478398
				CHANNELS 3 Zrotation Yrotation Xrotation
				JOINT RightToeBase
				{
					OFFSET -0.000001 -5.079609 13.284196
					CHANNELS 3 Zrotation Yrotation Xrotation
					JOINT RightToeEnd
					{
						OFFSET 0.009532 -1.634384 6.460591
						CHANNELS 3 Zrotation Yrotation Xrotation
						End Site
						{
							OFFSET 0.000000 0.000000 0.000000
						}
					}
				}
			}
		}
	}
}
MOTION
Frames: 4
Frame Time: 0.033333
3.435851 91.794739 -1.273100 -0.622432 -4.339810 -3.812349 0.971700 -0.038557 6.564833 -0.029421 -0.817433 -2.641878 0.675741 -2.799313 11.114800 4.631393 0.116709 16.053833 -3.203851 -8.451658 -3.276314 1.419200 -10.961675 -3.905312 0.000077 -0.000022 0.000006 -0.032260 0.063393 -0.049603 0.761521 -3.660979 -10.662980 -0.829805 3.786249 -10.670272 17.306341 -12.759364 3.320221 -70.430206 -37.730652 -2.227605 179.193329 -36.630928 -179.855499 5.045364 -7.232626 10.230289 -5.882102 9.861278 0.702589 -10.936856 -0.360575 7.156196 0.000000 8.774812 -0.000001 -16.422354 18.072466 6.054094 -1.844029 2.498502 -2.507277 -10.163589 4.678938 4.621103 -20.975992 -0.000004 0.000001 -21.226248 2.451691 -3.593992 0.000000 -0.000006 -0.000000 -1.362681 2.240796 -0.746323 -21.334888 0.584908 3.008320 -13.821197 -0.000003 0.000002 -23.887131 -0.249079 -0.839481 -60.717236 2.191370 -1.628301 -0.294025 1.679686 0.833256 -14.218190 0.093215 1.300579 -34.211998 -0.287564 0.967169 -20.033176 0.964534 1.212841 0.000000 -0.000000 -0.000000 -3.440386 0.788232 0.501655 -15.928165 -3.167305 2.999703 -6.338815 -0.000000 0.000001 -18.123413 3.648175 -4.905661 -0.000005 0.000001 -0.000002 -11.043943 19.892376 2.474124 32.804478 37.639076 -47.318367 176.678528 68.244637 177.802658 0.093372 -5.755764 15.430682 2.243539 -5.255031 -3.180156 14.282877 -0.826594 6.952495 -0.000001 -12.690593 -0.000001 15.509077 -17.021624 2.756191 1.665664 -1.955921 -2.878297 4.727794 -4.170584 4.993917 11.020511 0.000001 -0.000002 12.109030 -3.735711 -2.866781 0.000000 0.000001 -0.000000 1.291984 -1.928546 -1.498088 14.800111 0.567468 3.865603 14.242553 -1.341736 -6.660649 19.631937 0.143927 -0.648244 49.637779 -0.877351 -6.160295 0.353028 -1.511149 -0.031940 20.222763 3.684306 2.316627 18.787245 0.000004 -0.000000 10.751610 -0.479865 1.397903 0.000000 -0.000000 0.000000 3.273804 0.305947 -0.580110 21.486788 11.830363 2.266130 8.162916 0.000001 -0.000000 18.399050 -3.798980 -4.940568 0.000003 0.000001 -0.000001 17.346903 20.309958 -9.386087 -0.208327 -0.561918 42.088062 -15.532965 -1.384510 -21.197683 1.618299 -1.962151 -0.805346 -0.000000 -0.000001 0.000002 -13.671324 -14.975805 -25.508684 0.419874 0.611387 37.319572 15.476461 9.662553 -3.125225 -1.437413 0.818043 -0.069844 -0.000000 0.000000 -0.000001 
3.325103 91.815262 -1.222461 -0.634296 -4.210547 -3.791602 0.968790 -0.036438 6.556696 -0.043300 -0.814398 -2.649020 0.657207 -2.814291 11.080661 4.602486 0.133849 15.932788 -3.195472 -8.537356 -3.275558 1.477527 -11.098373 -3.894054 0.000077 -0.000022 0.000006 -0.033768 0.062850 -0.049652 0.756342 -3.652557 -10.666318 -0.827551 3.782811 -10.676123 17.283716 -12.795023 3.333892 -70.452980 -37.711632 -2.073530 179.123825 -36.644756 -179.783112 5.028895 -7.262512 10.274405 -5.882102 9.861278 0.702589 -10.936861 -0.360575 7.156197 0.000000 8.774813 -0.000002 -16.397705 18.068783 6.070969 -1.844031 2.498502 -2.507276 -10.163589 4.678938 4.621103 -20.975994 -0.000005 0.000003 -21.226255 2.451691 -3.593993 0.000000 -0.000006 -0.000000 -1.362681 2.240797 -0.746323 -21.334890 0.584907 3.008320 -13.821197 -0.000004 0.000002 -23.887133 -0.249080 -0.839480 -60.671844 2.194548 -1.622656 -0.294023 1.679686 0.833255 -14.218197 0.093214 1.300578 -34.212006 -0.287565 0.967171 -20.033176 0.964534 1.212843 -0.000000 -0.000000 -0.000000 -3.440388 0.788232 0.501655 -15.928169 -3.167306 2.999703 -6.338819 -0.000003 0.000001 -18.123413 3.648175 -4.905661 -0.000005 0.000000 -0.000002 -11.013805 19.906475 2.514836 32.566418 37.454796 -47.523026 176.609421 68.304558 177.741348 0.107003 -5.898098 15.518896 2.243539 -5.255033 -3.180155 14.282875 -0.826592 6.952496 -0.000001 -12.690592 0.000001 15.505793 -17.022499 2.765766 1.665663 -1.955919 -2.878297 4.727791 -4.170583 4.993920 11.020511 0.000004 -0.000001 12.109030 -3.735711 -2.866780 -0.000000 0.000000 0.000000 1.291985 -1.928549 -1.498088 14.800109 0.567470 3.865602 14.242551 -1.341733 -6.660649 19.631933 0.143928 -0.648242 49.619373 -0.904965 -6.127942 0.353027 -1.511151 -0.031941 20.222769 3.684308 2.316627 18.787245 0.000005 -0.000001 10.751610 -0.479868 1.397904 0.000000 0.000000 0.000000 3.273804 0.305947 -0.580110 21.486792 11.830361 2.266130 8.162916 0.000002 0.000000 18.399052 -3.798980 -4.940567 0.000003 0.000001 -0.000001 17.399897 20.112932 -9.363054 -0.214495 -0.567750 41.968018 -15.604629 -1.417041 -21.096977 1.619933 -1.978379 -0.800127 0.000000 0.000000 0.000002 -13.617349 -15.048487 -25.480032 0.417653 0.610791 37.404167 15.427189 9.603796 -3.231418 -1.435540 0.821411 -0.072194 -0.000000 0.000000 -0.000001 
3.237370 91.843040 -1.150769 -0.623306 -4.064176 -3.753817 0.950157 -0.026335 6.543634 -0.048485 -0.826038 -2.654869 0.644973 -2.823699 11.049556 4.587610 0.137427 15.809968 -3.204686 -8.620520 -3.268692 1.522869 -11.233896 -3.876982 0.000077 -0.000022 0.000006 -0.032568 0.063166 -0.049141 0.755569 -3.648564 -10.652575 -0.829960 3.786338 -10.662651 17.242830 -12.842729 3.348521 -70.491531 -37.603951 -1.906597 179.092941 -36.625824 -179.744049 5.051448 -7.316428 10.278173 -5.882102 9.861279 0.702588 -10.936858 -0.360575 7.156196 0.000000 8.774814 -0.000002 -16.440502 18.106693 6.086519 -1.844032 2.498503 -2.507275 -10.163589 4.678940 4.621103 -20.975992 -0.000004 0.000001 -21.226254 2.451692 -3.593994 0.000000 -0.000006 -0.000000 -1.362680 2.240797 -0.746323 -21.334890 0.584908 3.008320 -13.821194 -0.000003 0.000003 -23.887131 -0.249080 -0.839482 -60.705502 2.184464 -1.628608 -0.294024 1.679686 0.833255 -14.218194 0.093214 1.300578 -34.212002 -0.287564 0.967169 -20.033178 0.964534 1.212841 -0.000000 -0.000000 -0.000000 -3.440385 0.788232 0.501655 -15.928169 -3.167306 2.999703 -6.338817 -0.000001 0.000001 -18.123415 3.648175 -4.905662 -0.000004 0.000001 -0.000002 -10.971374 19.884924 2.549530 32.328999 37.247929 -47.682045 176.577194 68.334946 177.730576 0.120505 -5.993797 15.525724 2.243541 -5.255033 -3.180156 14.282875 -0.826592 6.952492 -0.000001 -12.690590 -0.000001 15.500953 -17.013262 2.756413 1.665666 -1.955920 -2.878296 4.727791 -4.170583 4.993918 11.020513 0.000001 -0.000002 12.109034 -3.735710 -2.866780 0.000000 0.000001 -0.000001 1.291987 -1.928550 -1.498088 14.800113 0.567466 3.865600 14.242556 -1.341735 -6.660650 19.631939 0.143929 -0.648244 49.590256 -0.906565 -6.147320 0.353028 -1.511151 -0.031940 20.222771 3.684303 2.316627 18.787247 0.000004 -0.000002 10.751610 -0.479869 1.397903 0.000000 0.000001 0.000000 3.273805 0.305948 -0.580111 21.486790 11.830360 2.266129 8.162916 0.000001 -0.000001 18.399052 -3.798979 -4.940570 0.000003 0.000002 -0.000001 17.412497 19.962231 -9.319623 -0.212568 -0.583516 41.745064 -15.672476 -1.464981 -21.035410 1.620226 -1.980116 -0.809281 -0.000000 -0.000001 0.000002 -13.688848 -15.109142 -25.379435 0.415276 0.609905 37.427425 15.439586 9.550459 -3.305170 -1.436244 0.821108 -0.075708 -0.000000 -0.000000 -0.000001 
3.185407 91.900970 -1.072941 -0.601153 -3.925646 -3.696642 0.927665 -0.019094 6.531844 -0.050645 -0.831503 -2.663726 0.623079 -2.847541 11.014671 4.573453 0.150758 15.702744 -3.215289 -8.691377 -3.243823 1.570958 -11.326976 -3.874194 0.000077 -0.000023 0.000006 -0.028514 0.051587 -0.049700 0.757962 -3.670407 -10.652900 -0.822861 3.771092 -10.662514 17.181925 -12.895125 3.396344 -70.502197 -37.477188 -1.823191 179.087662 -36.632366 -179.729813 5.066854 -7.376765 10.221420 -5.882103 9.861279 0.702590 -10.936860 -0.360574 7.156197 -0.000002 8.774813 -0.000001 -16.431704 18.164761 6.097538 -1.844030 2.498503 -2.507275 -10.163589 4.678941 4.621105 -20.975996 -0.000002 0.000001 -21.226255 2.451694 -3.593996 0.000000 -0.000006 -0.000000 -1.362680 2.240797 -0.746323 -21.334892 0.584910 3.008319 -13.821195 -0.000002 0.000001 -23.887131 -0.249078 -0.839483 -60.692230 2.197978 -1.638928 -0.294025 1.679687 0.833256 -14.218192 0.093215 1.300579 -34.212002 -0.287562 0.967166 -20.033180 0.964535 1.212840 -0.000000 0.000000 0.000000 -3.440386 0.788233 0.501655 -15.928169 -3.167305 2.999703 -6.338818 -0.000001 0.000001 -18.123415 3.648178 -4.905663 -0.000005 0.000000 -0.000002 -10.924340 19.833487 2.551955 32.093288 37.101089 -47.745720 176.587814 68.370270 177.661530 0.137763 -6.053984 15.560908 2.243538 -5.255032 -3.180154 14.282878 -0.826593 6.952498 -0.000001 -12.690590 -0.000000 15.522905 -17.027540 2.750904 1.665665 -1.955920 -2.878298 4.727793 -4.170582 4.993918 11.020512 0.000002 -0.000001 12.109034 -3.735712 -2.866780 0.000000 0.000001 0.000000 1.291985 -1.928547 -1.498089 14.800111 0.567468 3.865604 14.242554 -1.341736 -6.660650 19.631939 0.143927 -0.648244 49.604172 -0.923032 -6.162283 0.353030 -1.511149 -0.031940 20.222773 3.684306 2.316627 18.787247 0.000003 0.000001 10.751611 -0.479870 1.397904 0.000000 -0.000000 0.000000 3.273804 0.305946 -0.580110 21.486795 11.830364 2.266133 8.162916 0.000002 0.000000 18.399054 -3.798979 -4.940566 0.000003 0.000002 -0.000001 17.384512 19.832241 -9.314366 -0.208223 -0.589587 41.528149 -15.724457 -1.490259 -20.867193 1.619285 -1.988350 -0.815223 -0.000000 -0.000002 0.000002 -13.665330 -15.161047 -25.339079 0.405906 0.591315 37.399342 15.391999 9.483704 -3.339449 -1.434908 0.821430 -0.100741 -0.000000 -0.000000 -0.000001 
